<svg width="48" height="23" viewBox="0 0 48 23" fill="none" xmlns="http://www.w3.org/2000/svg">
<path d="M47.4041 17.0963C47.7663 17.3378 47.7663 17.87 47.4041 18.1115L40.6725 22.5993C40.1445 22.9513 39.4968 22.3634 39.7962 21.8039L41.8893 17.8917C41.9855 17.7119 41.9855 17.4959 41.8893 17.3161L39.7962 13.404C39.4968 12.8444 40.1445 12.2566 40.6725 12.6086L47.4041 17.0963Z" fill="white"/>
<path d="M47.4041 4.89547C47.7663 5.13694 47.7663 5.66918 47.4041 5.91064L40.6725 10.3984C40.1445 10.7504 39.4968 10.1625 39.7962 9.60303L41.8893 5.69085C41.9855 5.51105 41.9855 5.29507 41.8893 5.11527L39.7962 1.20309C39.4968 0.64357 40.1445 0.0557171 40.6725 0.407711L47.4041 4.89547Z" fill="white"/>
<path d="M0.595871 5.91068C0.233668 5.66921 0.233668 5.13698 0.595871 4.89551L7.32751 0.407748C7.8555 0.055754 8.50315 0.643608 8.20379 1.20312L6.11065 5.11531C6.01445 5.29511 6.01445 5.51108 6.11065 5.69088L8.2038 9.60307C8.50315 10.1626 7.8555 10.7504 7.32751 10.3984L0.595871 5.91068Z" fill="white"/>
<path d="M0.595871 18.1115C0.233668 17.87 0.233668 17.3378 0.595871 17.0963L7.32751 12.6086C7.8555 12.2566 8.50315 12.8444 8.20379 13.4039L6.11065 17.3161C6.01445 17.4959 6.01445 17.7119 6.11065 17.8917L8.20379 21.8039C8.50315 22.3634 7.8555 22.9512 7.32751 22.5992L0.595871 18.1115Z" fill="white"/>
<path d="M28.3031 9.66458C28.0292 9.83682 27.698 9.89318 27.3825 9.82127C27.067 9.74936 26.793 9.55507 26.6208 9.28113C26.4486 9.00719 26.3922 8.67605 26.4641 8.36056C26.536 8.04506 26.7303 7.77106 27.0042 7.59882L27.6537 8.6317L28.3031 9.66458Z" fill="white"/>
<path d="M19.6641 13.2425C19.9359 13.0671 20.2664 13.0068 20.5827 13.0749C20.899 13.1431 21.1753 13.3341 21.3508 13.606C21.5263 13.8779 21.5866 14.2083 21.5184 14.5246C21.4503 14.841 21.2592 15.1173 20.9874 15.2927L20.3257 14.2676L19.6641 13.2425Z" fill="white"/>
<path fill-rule="evenodd" clip-rule="evenodd" d="M19.6755 13.2352C16.9731 14.961 13.2026 16.3502 5.95475 16.3502L5.95476 18.7904C13.5529 18.7903 17.8074 17.3236 20.9889 15.2917L19.6755 13.2352ZM42.0693 4.14933C34.4789 4.14934 30.1956 5.5919 27.0033 7.59934L28.3022 9.66504C31.0164 7.95829 34.8205 6.58951 42.0693 6.5895L42.0693 4.14933Z" fill="white"/>
<path fill-rule="evenodd" clip-rule="evenodd" d="M17.2009 8.37444C14.6968 7.31166 11.2657 6.56502 5.95476 6.56501L5.95477 4.12484C11.4929 4.12485 15.2682 4.90333 18.1542 6.1282C21.0118 7.34097 22.9156 8.96135 24.6903 10.4719L24.7424 10.5162C26.534 12.041 28.2052 13.4516 30.7296 14.515C33.2547 15.5787 36.717 16.3257 42.0693 16.3257L42.0693 18.7659C36.492 18.7659 32.6876 17.9877 29.7822 16.7638C26.8834 15.5426 24.9629 13.9082 23.1743 12.386L23.1609 12.3745C21.3665 10.8474 19.7056 9.43747 17.2009 8.37444Z" fill="white"/>
</svg>
