<svg width="22" height="24" viewBox="0 0 22 24" fill="none" xmlns="http://www.w3.org/2000/svg">
<circle cx="11" cy="12" r="11" fill="#EB5757"/>
<path d="M16.3281 5.72656C18.276 7.38802 19.25 9.47917 19.25 12C19.25 14.2917 18.4479 16.2396 16.8438 17.8438C15.2396 19.4479 13.2917 20.25 11 20.25C8.70833 20.25 6.76042 19.4479 5.15625 17.8438C3.55208 16.2396 2.75 14.2917 2.75 12C2.75 9.47917 3.72396 7.38802 5.67188 5.72656L6.96094 7.01562C5.38542 8.30469 4.59766 9.96615 4.59766 12C4.59766 13.776 5.21354 15.2943 6.44531 16.5547C7.70573 17.7865 9.22396 18.4023 11 18.4023C12.776 18.4023 14.2799 17.7865 15.5117 16.5547C16.7721 15.2943 17.4023 13.776 17.4023 12C17.4023 9.96615 16.6146 8.31901 15.0391 7.05859L16.3281 5.72656ZM11.9023 3.75V12.9023H10.0977V3.75H11.9023Z" fill="white"/>
</svg>
