<svg width="12" height="200" viewBox="0 0 12 200" fill="none" xmlns="http://www.w3.org/2000/svg">
<path d="M0 10.0001L5.77341 0L11.547 9.99995L6.7735 10L6.77359 65L4.77359 65L4.7735 10L0 10.0001Z" fill="white"/>
<path d="M4.77367 81L4.77361 69L6.77361 69L6.77367 81L4.77367 81Z" fill="white"/>
<path d="M4.77375 97L4.77369 85L6.77369 85L6.77375 97H4.77375Z" fill="white"/>
<path d="M4.77383 113L4.77377 101L6.77377 101L6.77383 113L4.77383 113Z" fill="white"/>
<path d="M4.77391 129L4.77385 117L6.77385 117L6.77391 129H4.77391Z" fill="white"/>
<path d="M4.77393 133H6.77393L6.77395 141.859H4.77395L4.77393 133Z" fill="white"/>
<path d="M5.77415 200L11.5476 190H0.000610352L5.77415 200Z" fill="white"/>
<path d="M4.77399 151.391L4.774 157.109H6.774L6.77399 151.391H4.77399Z" fill="white"/>
<path d="M4.77404 166.641L4.77406 172.359H6.77406L6.77404 166.641H4.77404Z" fill="white"/>
<path d="M4.77409 181.891L4.77411 187.609H6.77411L6.77409 181.891H4.77409Z" fill="white"/>
</svg>
